<svg width="256" height="40" viewBox="0 0 256 40" fill="none" xmlns="http://www.w3.org/2000/svg">
<path d="M17.496 21.432C19.736 21.848 21.544 22.664 22.92 23.88C24.328 25.064 25.032 26.888 25.032 29.352C25.032 32.84 23.784 35.32 21.288 36.792C18.792 38.264 15.32 39 10.872 39H0.504V5.784H9.576C14.12 5.784 17.592 6.456 19.992 7.8C22.392 9.144 23.592 11.304 23.592 14.28C23.592 16.232 23 17.816 21.816 19.032C20.664 20.216 19.224 21.016 17.496 21.432ZM7.56 10.872V19.272H11.016C12.744 19.272 14.072 18.92 15 18.216C15.928 17.48 16.392 16.376 16.392 14.904C16.392 13.432 15.896 12.392 14.904 11.784C13.912 11.176 12.36 10.872 10.248 10.872H7.56ZM10.92 33.768C13.128 33.768 14.808 33.448 15.96 32.808C17.112 32.136 17.688 30.888 17.688 29.064C17.688 25.736 15.64 24.072 11.544 24.072H7.56V33.768H10.92ZM43.0433 12.84C43.8113 12.84 44.6593 12.968 45.5873 13.224L44.4353 19.8C43.5393 19.576 42.7873 19.464 42.1793 19.464C40.6753 19.464 39.5073 19.992 38.6753 21.048C37.8433 22.104 37.1873 23.704 36.7073 25.848V39H29.8913V13.56H35.7953L36.4193 18.504C37.0273 16.712 37.9073 15.32 39.0593 14.328C40.2433 13.336 41.5713 12.84 43.0433 12.84ZM69.8014 39H63.8974L63.5614 35.592C62.6654 37 61.5774 38.056 60.2974 38.76C59.0174 39.432 57.5294 39.768 55.8334 39.768C53.5294 39.768 51.7694 39.08 50.5534 37.704C49.3374 36.296 48.7294 34.344 48.7294 31.848V13.56H55.5454V30.984C55.5454 32.328 55.7694 33.288 56.2174 33.864C56.6654 34.408 57.3694 34.68 58.3294 34.68C60.1534 34.68 61.7054 33.576 62.9854 31.368V13.56H69.8014V39ZM90.7399 12.792C92.9799 12.792 94.7239 13.48 95.9719 14.856C97.2199 16.2 97.8439 18.072 97.8439 20.472V39H91.0279V21.624C91.0279 20.248 90.7879 19.288 90.3079 18.744C89.8599 18.168 89.1719 17.88 88.2439 17.88C87.2839 17.88 86.4039 18.184 85.6039 18.792C84.8359 19.368 84.0839 20.248 83.3479 21.432V39H76.5319V13.56H82.4359L82.9639 16.776C84.0199 15.464 85.1719 14.472 86.4199 13.8C87.6999 13.128 89.1399 12.792 90.7399 12.792ZM115.033 12.792C118.841 12.792 121.817 13.992 123.961 16.392C126.105 18.76 127.177 22.056 127.177 26.28C127.177 28.968 126.681 31.336 125.689 33.384C124.729 35.4 123.321 36.968 121.465 38.088C119.641 39.208 117.481 39.768 114.985 39.768C111.177 39.768 108.185 38.584 106.009 36.216C103.865 33.816 102.793 30.504 102.793 26.28C102.793 23.592 103.273 21.24 104.233 19.224C105.225 17.176 106.633 15.592 108.457 14.472C110.313 13.352 112.505 12.792 115.033 12.792ZM115.033 17.88C113.305 17.88 112.009 18.568 111.145 19.944C110.313 21.288 109.897 23.4 109.897 26.28C109.897 29.16 110.313 31.288 111.145 32.664C112.009 34.008 113.289 34.68 114.985 34.68C116.681 34.68 117.945 34.008 118.777 32.664C119.641 31.288 120.073 29.16 120.073 26.28C120.073 23.4 119.657 21.288 118.825 19.944C117.993 18.568 116.729 17.88 115.033 17.88ZM151.279 5.784V33.336H164.431L163.663 39H144.223V5.784H151.279ZM175.317 13.56V39H168.501V13.56H175.317ZM171.861 0.455998C173.077 0.455998 174.069 0.839998 174.837 1.608C175.637 2.344 176.037 3.288 176.037 4.44C176.037 5.592 175.637 6.552 174.837 7.32C174.069 8.056 173.077 8.424 171.861 8.424C170.645 8.424 169.653 8.056 168.885 7.32C168.117 6.552 167.733 5.592 167.733 4.44C167.733 3.288 168.117 2.344 168.885 1.608C169.653 0.839998 170.645 0.455998 171.861 0.455998ZM209.552 12.792C211.568 12.792 213.184 13.48 214.4 14.856C215.648 16.232 216.272 18.104 216.272 20.472V39H209.456V21.624C209.456 19.128 208.624 17.88 206.96 17.88C206.064 17.88 205.28 18.168 204.608 18.744C203.936 19.32 203.248 20.216 202.544 21.432V39H195.728V21.624C195.728 19.128 194.896 17.88 193.232 17.88C192.336 17.88 191.552 18.184 190.88 18.792C190.208 19.368 189.536 20.248 188.864 21.432V39H182.048V13.56H187.952L188.48 16.728C189.44 15.448 190.512 14.472 191.696 13.8C192.912 13.128 194.304 12.792 195.872 12.792C197.312 12.792 198.56 13.16 199.616 13.896C200.672 14.6 201.44 15.608 201.92 16.92C202.976 15.544 204.112 14.52 205.328 13.848C206.576 13.144 207.984 12.792 209.552 12.792ZM242.175 31.944C242.175 32.936 242.319 33.672 242.607 34.152C242.895 34.6 243.375 34.936 244.047 35.16L242.607 39.672C241.103 39.544 239.871 39.192 238.911 38.616C237.983 38.04 237.263 37.144 236.751 35.928C235.087 38.488 232.543 39.768 229.119 39.768C226.591 39.768 224.575 39.048 223.071 37.608C221.599 36.136 220.863 34.232 220.863 31.896C220.863 29.112 221.871 26.984 223.887 25.512C225.903 24.04 228.799 23.304 232.575 23.304H235.503V22.056C235.503 20.488 235.151 19.4 234.447 18.792C233.743 18.184 232.575 17.88 230.943 17.88C229.151 17.88 226.911 18.328 224.223 19.224L222.687 14.664C225.855 13.416 228.991 12.792 232.095 12.792C235.551 12.792 238.095 13.544 239.727 15.048C241.359 16.52 242.175 18.728 242.175 21.672V31.944ZM230.991 34.872C232.911 34.872 234.415 33.928 235.503 32.04V27.192H233.247C229.567 27.192 227.727 28.568 227.727 31.32C227.727 32.44 227.999 33.32 228.543 33.96C229.119 34.568 229.935 34.872 230.991 34.872Z" fill="#171616"/>
<path d="M251.337 31.56C252.489 31.56 253.465 31.96 254.265 32.76C255.065 33.56 255.465 34.52 255.465 35.64C255.465 36.76 255.065 37.736 254.265 38.568C253.465 39.368 252.489 39.768 251.337 39.768C250.217 39.768 249.257 39.368 248.457 38.568C247.657 37.736 247.257 36.76 247.257 35.64C247.257 34.52 247.657 33.56 248.457 32.76C249.257 31.96 250.217 31.56 251.337 31.56Z" fill="#5D5FEF"/>
</svg>
